<svg xmlns="http://www.w3.org/2000/svg" version="1.1" xmlns:xlink="http://www.w3.org/1999/xlink" xmlns:svgjs="http://svgjs.com/svgjs" width="1440" height="560" preserveAspectRatio="none" viewBox="0 0 1440 560"><g mask="url(&quot;#SvgjsMask1000&quot;)" fill="none"><rect width="1440" height="560" x="0" y="0" fill="#0e2a47"></rect><path d="M635.2 653.85C772.42 592.11 708.9 160.34 974.99 157.05 1241.08 153.76 1478.14 345.66 1654.57 347.45" stroke="rgba(51,121,194,0.58)" stroke-width="2"></path><path d="M517.46 645.29C704.38 610.88 792.59 143.8 1086.71 141.38 1380.83 138.96 1504.55 345.39 1655.96 348.58" stroke="rgba(51,121,194,0.58)" stroke-width="2"></path><path d="M672.15 606.58C823.84 591.95 923.22 271.72 1181.13 271.16 1439.05 270.6 1556.14 437.01 1690.12 439.16" stroke="rgba(51,121,194,0.58)" stroke-width="2"></path><path d="M596.68 652.53C708.38 620.7 640.57 324.74 907.39 307.13 1174.21 289.52 1367.13 129.71 1528.81 127.93" stroke="rgba(51,121,194,0.58)" stroke-width="2"></path><path d="M737.36 600.32C867.95 568.55 883.57 243.44 1113.67 216.38 1343.78 189.32 1388.12 62.67 1489.99 59.58" stroke="rgba(51,121,194,0.58)" stroke-width="2"></path></g><defs><mask id="SvgjsMask1000"><rect width="1440" height="560" fill="#ffffff"></rect></mask></defs></svg>