<svg xmlns="http://www.w3.org/2000/svg" version="1.1" xmlns:xlink="http://www.w3.org/1999/xlink" xmlns:svgjs="http://svgjs.com/svgjs" width="1440" height="574" preserveAspectRatio="none" viewBox="0 0 1440 574"><g mask="url(&quot;#SvgjsMask1028&quot;)" fill="none"><rect width="1440" height="574" x="0" y="0" fill="#0e2a47"></rect><path d="M-78.16 538.26L-78.16 538.26" stroke="#132e65" stroke-width="1.5"></path><path d="M-78.16 538.26L-47.76 689" stroke="#132e65" stroke-width="1.5"></path><path d="M-78.16 538.26L84.81 540.75" stroke="#132e65" stroke-width="1.5"></path><path d="M-47.76 689L-47.76 689" stroke="#132e65" stroke-width="1.5"></path><path d="M-47.76 689L47.37 645.6" stroke="#132e65" stroke-width="1.5"></path><path d="M-47.76 689L84.81 540.75" stroke="#132e65" stroke-width="1.5"></path><path d="M-47.76 689L198.56 692.55" stroke="#132e65" stroke-width="1.5"></path><path d="M-47.76 689L232.39 541.03" stroke="#132e65" stroke-width="1.5"></path><path d="M-47.76 689L59.18 371.2" stroke="#132e65" stroke-width="1.5"></path><path d="M59.18 371.2L59.18 371.2" stroke="#132e65" stroke-width="1.5"></path><path d="M59.18 371.2L205.61 383.18" stroke="#132e65" stroke-width="1.5"></path><path d="M59.18 371.2L84.81 540.75" stroke="#132e65" stroke-width="1.5"></path><path d="M59.18 371.2L-78.16 538.26" stroke="#132e65" stroke-width="1.5"></path><path d="M84.81 540.75L84.81 540.75" stroke="#132e65" stroke-width="1.5"></path><path d="M84.81 540.75L47.37 645.6" stroke="#132e65" stroke-width="1.5"></path><path d="M84.81 540.75L232.39 541.03" stroke="#132e65" stroke-width="1.5"></path><path d="M47.37 645.6L47.37 645.6" stroke="#132e65" stroke-width="1.5"></path><path d="M47.37 645.6L198.56 692.55" stroke="#132e65" stroke-width="1.5"></path><path d="M47.37 645.6L-78.16 538.26" stroke="#132e65" stroke-width="1.5"></path><path d="M47.37 645.6L232.39 541.03" stroke="#132e65" stroke-width="1.5"></path><path d="M47.37 645.6L59.18 371.2" stroke="#132e65" stroke-width="1.5"></path><path d="M205.61 383.18L205.61 383.18" stroke="#132e65" stroke-width="1.5"></path><path d="M205.61 383.18L232.39 541.03" stroke="#132e65" stroke-width="1.5"></path><path d="M205.61 383.18L401.03 379.2" stroke="#132e65" stroke-width="1.5"></path><path d="M205.61 383.18L84.81 540.75" stroke="#132e65" stroke-width="1.5"></path><path d="M205.61 383.18L355.91 556.05" stroke="#132e65" stroke-width="1.5"></path><path d="M205.61 383.18L498.22 390.38" stroke="#132e65" stroke-width="1.5"></path><path d="M232.39 541.03L232.39 541.03" stroke="#132e65" stroke-width="1.5"></path><path d="M232.39 541.03L355.91 556.05" stroke="#132e65" stroke-width="1.5"></path><path d="M232.39 541.03L198.56 692.55" stroke="#132e65" stroke-width="1.5"></path><path d="M232.39 541.03L408.24 647.48" stroke="#132e65" stroke-width="1.5"></path><path d="M198.56 692.55L198.56 692.55" stroke="#132e65" stroke-width="1.5"></path><path d="M401.03 379.2L401.03 379.2" stroke="#132e65" stroke-width="1.5"></path><path d="M401.03 379.2L498.22 390.38" stroke="#132e65" stroke-width="1.5"></path><path d="M401.03 379.2L355.91 556.05" stroke="#132e65" stroke-width="1.5"></path><path d="M355.91 556.05L355.91 556.05" stroke="#132e65" stroke-width="1.5"></path><path d="M355.91 556.05L408.24 647.48" stroke="#132e65" stroke-width="1.5"></path><path d="M355.91 556.05L521.66 643.74" stroke="#132e65" stroke-width="1.5"></path><path d="M408.24 647.48L408.24 647.48" stroke="#132e65" stroke-width="1.5"></path><path d="M408.24 647.48L521.66 643.74" stroke="#132e65" stroke-width="1.5"></path><path d="M408.24 647.48L559.14 540.53" stroke="#132e65" stroke-width="1.5"></path><path d="M498.22 390.38L498.22 390.38" stroke="#132e65" stroke-width="1.5"></path><path d="M498.22 390.38L656.27 371.46" stroke="#132e65" stroke-width="1.5"></path><path d="M498.22 390.38L559.14 540.53" stroke="#132e65" stroke-width="1.5"></path><path d="M498.22 390.38L355.91 556.05" stroke="#132e65" stroke-width="1.5"></path><path d="M498.22 390.38L665.09 246.5" stroke="#132e65" stroke-width="1.5"></path><path d="M559.14 540.53L559.14 540.53" stroke="#132e65" stroke-width="1.5"></path><path d="M559.14 540.53L521.66 643.74" stroke="#132e65" stroke-width="1.5"></path><path d="M559.14 540.53L695.49 505.17" stroke="#132e65" stroke-width="1.5"></path><path d="M521.66 643.74L521.66 643.74" stroke="#132e65" stroke-width="1.5"></path><path d="M521.66 643.74L685.93 698.21" stroke="#132e65" stroke-width="1.5"></path><path d="M521.66 643.74L695.49 505.17" stroke="#132e65" stroke-width="1.5"></path><path d="M521.66 643.74L498.22 390.38" stroke="#132e65" stroke-width="1.5"></path><path d="M665.09 246.5L665.09 246.5" stroke="#132e65" stroke-width="1.5"></path><path d="M665.09 246.5L656.27 371.46" stroke="#132e65" stroke-width="1.5"></path><path d="M665.09 246.5L817.22 194.52" stroke="#132e65" stroke-width="1.5"></path><path d="M665.09 246.5L831.05 382.58" stroke="#132e65" stroke-width="1.5"></path><path d="M665.09 246.5L695.49 505.17" stroke="#132e65" stroke-width="1.5"></path><path d="M665.09 246.5L957.27 260.87" stroke="#132e65" stroke-width="1.5"></path><path d="M656.27 371.46L656.27 371.46" stroke="#132e65" stroke-width="1.5"></path><path d="M656.27 371.46L695.49 505.17" stroke="#132e65" stroke-width="1.5"></path><path d="M656.27 371.46L831.05 382.58" stroke="#132e65" stroke-width="1.5"></path><path d="M695.49 505.17L695.49 505.17" stroke="#132e65" stroke-width="1.5"></path><path d="M695.49 505.17L804.71 513" stroke="#132e65" stroke-width="1.5"></path><path d="M695.49 505.17L831.05 382.58" stroke="#132e65" stroke-width="1.5"></path><path d="M695.49 505.17L685.93 698.21" stroke="#132e65" stroke-width="1.5"></path><path d="M685.93 698.21L685.93 698.21" stroke="#132e65" stroke-width="1.5"></path><path d="M685.93 698.21L818.99 673.34" stroke="#132e65" stroke-width="1.5"></path><path d="M685.93 698.21L559.14 540.53" stroke="#132e65" stroke-width="1.5"></path><path d="M817.22 194.52L817.22 194.52" stroke="#132e65" stroke-width="1.5"></path><path d="M817.22 194.52L957.27 260.87" stroke="#132e65" stroke-width="1.5"></path><path d="M817.22 194.52L831.05 382.58" stroke="#132e65" stroke-width="1.5"></path><path d="M817.22 194.52L994.99 62.66" stroke="#132e65" stroke-width="1.5"></path><path d="M817.22 194.52L656.27 371.46" stroke="#132e65" stroke-width="1.5"></path><path d="M831.05 382.58L831.05 382.58" stroke="#132e65" stroke-width="1.5"></path><path d="M831.05 382.58L804.71 513" stroke="#132e65" stroke-width="1.5"></path><path d="M831.05 382.58L957.27 260.87" stroke="#132e65" stroke-width="1.5"></path><path d="M831.05 382.58L1007.47 410.83" stroke="#132e65" stroke-width="1.5"></path><path d="M804.71 513L804.71 513" stroke="#132e65" stroke-width="1.5"></path><path d="M804.71 513L818.99 673.34" stroke="#132e65" stroke-width="1.5"></path><path d="M804.71 513L656.27 371.46" stroke="#132e65" stroke-width="1.5"></path><path d="M804.71 513L685.93 698.21" stroke="#132e65" stroke-width="1.5"></path><path d="M804.71 513L1007.47 410.83" stroke="#132e65" stroke-width="1.5"></path><path d="M818.99 673.34L818.99 673.34" stroke="#132e65" stroke-width="1.5"></path><path d="M953.23 -64.26L953.23 -64.26" stroke="#132e65" stroke-width="1.5"></path><path d="M953.23 -64.26L994.99 62.66" stroke="#132e65" stroke-width="1.5"></path><path d="M953.23 -64.26L1141.51 -112.18" stroke="#132e65" stroke-width="1.5"></path><path d="M953.23 -64.26L1115.93 50.76" stroke="#132e65" stroke-width="1.5"></path><path d="M953.23 -64.26L817.22 194.52" stroke="#132e65" stroke-width="1.5"></path><path d="M953.23 -64.26L1254.8 -88.43" stroke="#132e65" stroke-width="1.5"></path><path d="M953.23 -64.26L957.27 260.87" stroke="#132e65" stroke-width="1.5"></path><path d="M994.99 62.66L994.99 62.66" stroke="#132e65" stroke-width="1.5"></path><path d="M994.99 62.66L1115.93 50.76" stroke="#132e65" stroke-width="1.5"></path><path d="M957.27 260.87L957.27 260.87" stroke="#132e65" stroke-width="1.5"></path><path d="M957.27 260.87L1007.47 410.83" stroke="#132e65" stroke-width="1.5"></path><path d="M957.27 260.87L994.99 62.66" stroke="#132e65" stroke-width="1.5"></path><path d="M957.27 260.87L1124.23 375.32" stroke="#132e65" stroke-width="1.5"></path><path d="M1007.47 410.83L1007.47 410.83" stroke="#132e65" stroke-width="1.5"></path><path d="M1007.47 410.83L1124.23 375.32" stroke="#132e65" stroke-width="1.5"></path><path d="M982.18 669.05L982.18 669.05" stroke="#132e65" stroke-width="1.5"></path><path d="M982.18 669.05L1093.27 692.4" stroke="#132e65" stroke-width="1.5"></path><path d="M982.18 669.05L818.99 673.34" stroke="#132e65" stroke-width="1.5"></path><path d="M982.18 669.05L1152.99 519.14" stroke="#132e65" stroke-width="1.5"></path><path d="M982.18 669.05L804.71 513" stroke="#132e65" stroke-width="1.5"></path><path d="M1141.51 -112.18L1141.51 -112.18" stroke="#132e65" stroke-width="1.5"></path><path d="M1141.51 -112.18L1254.8 -88.43" stroke="#132e65" stroke-width="1.5"></path><path d="M1141.51 -112.18L1115.93 50.76" stroke="#132e65" stroke-width="1.5"></path><path d="M1141.51 -112.18L1265.04 67.36" stroke="#132e65" stroke-width="1.5"></path><path d="M1115.93 50.76L1115.93 50.76" stroke="#132e65" stroke-width="1.5"></path><path d="M1115.93 50.76L1265.04 67.36" stroke="#132e65" stroke-width="1.5"></path><path d="M1115.93 50.76L1254.8 -88.43" stroke="#132e65" stroke-width="1.5"></path><path d="M1160.37 247.65L1160.37 247.65" stroke="#132e65" stroke-width="1.5"></path><path d="M1160.37 247.65L1124.23 375.32" stroke="#132e65" stroke-width="1.5"></path><path d="M1160.37 247.65L1306.15 232.73" stroke="#132e65" stroke-width="1.5"></path><path d="M1160.37 247.65L1266.66 365.32" stroke="#132e65" stroke-width="1.5"></path><path d="M1160.37 247.65L1115.93 50.76" stroke="#132e65" stroke-width="1.5"></path><path d="M1160.37 247.65L957.27 260.87" stroke="#132e65" stroke-width="1.5"></path><path d="M1160.37 247.65L1265.04 67.36" stroke="#132e65" stroke-width="1.5"></path><path d="M1124.23 375.32L1124.23 375.32" stroke="#132e65" stroke-width="1.5"></path><path d="M1124.23 375.32L1266.66 365.32" stroke="#132e65" stroke-width="1.5"></path><path d="M1152.99 519.14L1152.99 519.14" stroke="#132e65" stroke-width="1.5"></path><path d="M1152.99 519.14L1260.66 509.91" stroke="#132e65" stroke-width="1.5"></path><path d="M1152.99 519.14L1124.23 375.32" stroke="#132e65" stroke-width="1.5"></path><path d="M1152.99 519.14L1007.47 410.83" stroke="#132e65" stroke-width="1.5"></path><path d="M1152.99 519.14L1093.27 692.4" stroke="#132e65" stroke-width="1.5"></path><path d="M1152.99 519.14L1261.55 670.81" stroke="#132e65" stroke-width="1.5"></path><path d="M1152.99 519.14L1266.66 365.32" stroke="#132e65" stroke-width="1.5"></path><path d="M1093.27 692.4L1093.27 692.4" stroke="#132e65" stroke-width="1.5"></path><path d="M1093.27 692.4L1261.55 670.81" stroke="#132e65" stroke-width="1.5"></path><path d="M1254.8 -88.43L1254.8 -88.43" stroke="#132e65" stroke-width="1.5"></path><path d="M1254.8 -88.43L1265.04 67.36" stroke="#132e65" stroke-width="1.5"></path><path d="M1265.04 67.36L1265.04 67.36" stroke="#132e65" stroke-width="1.5"></path><path d="M1265.04 67.36L1404.98 112.03" stroke="#132e65" stroke-width="1.5"></path><path d="M1306.15 232.73L1306.15 232.73" stroke="#132e65" stroke-width="1.5"></path><path d="M1306.15 232.73L1437.48 192.12" stroke="#132e65" stroke-width="1.5"></path><path d="M1306.15 232.73L1266.66 365.32" stroke="#132e65" stroke-width="1.5"></path><path d="M1306.15 232.73L1404.98 112.03" stroke="#132e65" stroke-width="1.5"></path><path d="M1266.66 365.32L1266.66 365.32" stroke="#132e65" stroke-width="1.5"></path><path d="M1266.66 365.32L1260.66 509.91" stroke="#132e65" stroke-width="1.5"></path><path d="M1260.66 509.91L1260.66 509.91" stroke="#132e65" stroke-width="1.5"></path><path d="M1260.66 509.91L1261.55 670.81" stroke="#132e65" stroke-width="1.5"></path><path d="M1260.66 509.91L1445.92 516.29" stroke="#132e65" stroke-width="1.5"></path><path d="M1261.55 670.81L1261.55 670.81" stroke="#132e65" stroke-width="1.5"></path><path d="M1261.55 670.81L1437.28 670.52" stroke="#132e65" stroke-width="1.5"></path><path d="M1452.4 -86.54L1452.4 -86.54" stroke="#132e65" stroke-width="1.5"></path><path d="M1452.4 -86.54L1587.42 -67.09" stroke="#132e65" stroke-width="1.5"></path><path d="M1452.4 -86.54L1254.8 -88.43" stroke="#132e65" stroke-width="1.5"></path><path d="M1452.4 -86.54L1404.98 112.03" stroke="#132e65" stroke-width="1.5"></path><path d="M1452.4 -86.54L1556.02 90.65" stroke="#132e65" stroke-width="1.5"></path><path d="M1404.98 112.03L1404.98 112.03" stroke="#132e65" stroke-width="1.5"></path><path d="M1404.98 112.03L1437.48 192.12" stroke="#132e65" stroke-width="1.5"></path><path d="M1404.98 112.03L1556.02 90.65" stroke="#132e65" stroke-width="1.5"></path><path d="M1437.48 192.12L1437.48 192.12" stroke="#132e65" stroke-width="1.5"></path><path d="M1437.48 192.12L1579.35 242.53" stroke="#132e65" stroke-width="1.5"></path><path d="M1436.37 350.04L1436.37 350.04" stroke="#132e65" stroke-width="1.5"></path><path d="M1436.37 350.04L1555.98 389.86" stroke="#132e65" stroke-width="1.5"></path><path d="M1436.37 350.04L1437.48 192.12" stroke="#132e65" stroke-width="1.5"></path><path d="M1436.37 350.04L1445.92 516.29" stroke="#132e65" stroke-width="1.5"></path><path d="M1436.37 350.04L1266.66 365.32" stroke="#132e65" stroke-width="1.5"></path><path d="M1445.92 516.29L1445.92 516.29" stroke="#132e65" stroke-width="1.5"></path><path d="M1445.92 516.29L1558.85 487.89" stroke="#132e65" stroke-width="1.5"></path><path d="M1445.92 516.29L1437.28 670.52" stroke="#132e65" stroke-width="1.5"></path><path d="M1437.28 670.52L1437.28 670.52" stroke="#132e65" stroke-width="1.5"></path><path d="M1437.28 670.52L1608.38 688.57" stroke="#132e65" stroke-width="1.5"></path><path d="M1587.42 -67.09L1587.42 -67.09" stroke="#132e65" stroke-width="1.5"></path><path d="M1587.42 -67.09L1556.02 90.65" stroke="#132e65" stroke-width="1.5"></path><path d="M1556.02 90.65L1556.02 90.65" stroke="#132e65" stroke-width="1.5"></path><path d="M1556.02 90.65L1579.35 242.53" stroke="#132e65" stroke-width="1.5"></path><path d="M1556.02 90.65L1437.48 192.12" stroke="#132e65" stroke-width="1.5"></path><path d="M1579.35 242.53L1579.35 242.53" stroke="#132e65" stroke-width="1.5"></path><path d="M1579.35 242.53L1555.98 389.86" stroke="#132e65" stroke-width="1.5"></path><path d="M1579.35 242.53L1436.37 350.04" stroke="#132e65" stroke-width="1.5"></path><path d="M1579.35 242.53L1404.98 112.03" stroke="#132e65" stroke-width="1.5"></path><path d="M1555.98 389.86L1555.98 389.86" stroke="#132e65" stroke-width="1.5"></path><path d="M1555.98 389.86L1558.85 487.89" stroke="#132e65" stroke-width="1.5"></path><path d="M1558.85 487.89L1558.85 487.89" stroke="#132e65" stroke-width="1.5"></path><path d="M1558.85 487.89L1436.37 350.04" stroke="#132e65" stroke-width="1.5"></path><path d="M1558.85 487.89L1608.38 688.57" stroke="#132e65" stroke-width="1.5"></path><path d="M1558.85 487.89L1437.28 670.52" stroke="#132e65" stroke-width="1.5"></path><path d="M1608.38 688.57L1608.38 688.57" stroke="#132e65" stroke-width="1.5"></path><path d="M1608.38 688.57L1445.92 516.29" stroke="#132e65" stroke-width="1.5"></path><path d="M1608.38 688.57L1555.98 389.86" stroke="#132e65" stroke-width="1.5"></path><path d="M1608.38 688.57L1261.55 670.81" stroke="#132e65" stroke-width="1.5"></path><path d="M1608.38 688.57L1436.37 350.04" stroke="#132e65" stroke-width="1.5"></path><circle r="5" cx="-78.16" cy="538.26" fill="#132e65"></circle><circle r="5" cx="-47.76" cy="689" fill="#132e65"></circle><circle r="5" cx="59.18" cy="371.2" fill="#132e65"></circle><circle r="5" cx="84.81" cy="540.75" fill="#132e65"></circle><circle r="5" cx="47.37" cy="645.6" fill="#132e65"></circle><circle r="5" cx="205.61" cy="383.18" fill="#132e65"></circle><circle r="5" cx="232.39" cy="541.03" fill="#132e65"></circle><circle r="5" cx="198.56" cy="692.55" fill="#132e65"></circle><circle r="5" cx="401.03" cy="379.2" fill="#132e65"></circle><circle r="5" cx="355.91" cy="556.05" fill="#132e65"></circle><circle r="5" cx="408.24" cy="647.48" fill="#132e65"></circle><circle r="5" cx="498.22" cy="390.38" fill="#132e65"></circle><circle r="5" cx="559.14" cy="540.53" fill="#132e65"></circle><circle r="5" cx="521.66" cy="643.74" fill="#132e65"></circle><circle r="5" cx="665.09" cy="246.5" fill="#132e65"></circle><circle r="5" cx="656.27" cy="371.46" fill="#132e65"></circle><circle r="5" cx="695.49" cy="505.17" fill="#132e65"></circle><circle r="5" cx="685.93" cy="698.21" fill="#132e65"></circle><circle r="5" cx="817.22" cy="194.52" fill="#132e65"></circle><circle r="5" cx="831.05" cy="382.58" fill="#132e65"></circle><circle r="5" cx="804.71" cy="513" fill="#132e65"></circle><circle r="5" cx="818.99" cy="673.34" fill="#132e65"></circle><circle r="5" cx="953.23" cy="-64.26" fill="#132e65"></circle><circle r="5" cx="994.99" cy="62.66" fill="#132e65"></circle><circle r="5" cx="957.27" cy="260.87" fill="#132e65"></circle><circle r="5" cx="1007.47" cy="410.83" fill="#132e65"></circle><circle r="5" cx="982.18" cy="669.05" fill="#132e65"></circle><circle r="5" cx="1141.51" cy="-112.18" fill="#132e65"></circle><circle r="5" cx="1115.93" cy="50.76" fill="#132e65"></circle><circle r="5" cx="1160.37" cy="247.65" fill="#132e65"></circle><circle r="5" cx="1124.23" cy="375.32" fill="#132e65"></circle><circle r="5" cx="1152.99" cy="519.14" fill="#132e65"></circle><circle r="5" cx="1093.27" cy="692.4" fill="#132e65"></circle><circle r="5" cx="1254.8" cy="-88.43" fill="#132e65"></circle><circle r="5" cx="1265.04" cy="67.36" fill="#132e65"></circle><circle r="5" cx="1306.15" cy="232.73" fill="#132e65"></circle><circle r="5" cx="1266.66" cy="365.32" fill="#132e65"></circle><circle r="5" cx="1260.66" cy="509.91" fill="#132e65"></circle><circle r="5" cx="1261.55" cy="670.81" fill="#132e65"></circle><circle r="5" cx="1452.4" cy="-86.54" fill="#132e65"></circle><circle r="5" cx="1404.98" cy="112.03" fill="#132e65"></circle><circle r="5" cx="1437.48" cy="192.12" fill="#132e65"></circle><circle r="5" cx="1436.37" cy="350.04" fill="#132e65"></circle><circle r="5" cx="1445.92" cy="516.29" fill="#132e65"></circle><circle r="5" cx="1437.28" cy="670.52" fill="#132e65"></circle><circle r="5" cx="1587.42" cy="-67.09" fill="#132e65"></circle><circle r="5" cx="1556.02" cy="90.65" fill="#132e65"></circle><circle r="5" cx="1579.35" cy="242.53" fill="#132e65"></circle><circle r="5" cx="1555.98" cy="389.86" fill="#132e65"></circle><circle r="5" cx="1558.85" cy="487.89" fill="#132e65"></circle><circle r="5" cx="1608.38" cy="688.57" fill="#132e65"></circle><path d="M-111.48 538.35L-111.48 538.35" stroke="hsl(228.5, 77.2%, 51.5%)" stroke-width="1.5"></path><path d="M-111.48 538.35L-41.41 649.93" stroke="hsl(228.5, 77.2%, 51.5%)" stroke-width="1.5"></path><path d="M-111.48 538.35L78.59 496.8" stroke="hsl(228.5, 77.2%, 51.5%)" stroke-width="1.5"></path><path d="M-111.48 538.35L96.56 650.03" stroke="hsl(228.5, 77.2%, 51.5%)" stroke-width="1.5"></path><path d="M96.56 650.03L96.56 650.03" stroke="hsl(228.5, 77.2%, 51.5%)" stroke-width="1.5"></path><path d="M96.56 650.03L-41.41 649.93" stroke="hsl(228.5, 77.2%, 51.5%)" stroke-width="1.5"></path><path d="M96.56 650.03L78.59 496.8" stroke="hsl(228.5, 77.2%, 51.5%)" stroke-width="1.5"></path><path d="M96.56 650.03L248.47 710.62" stroke="hsl(228.5, 77.2%, 51.5%)" stroke-width="1.5"></path><path d="M96.56 650.03L227.51 514.42" stroke="hsl(228.5, 77.2%, 51.5%)" stroke-width="1.5"></path><path d="M1008.65 367.14L1008.65 367.14" stroke="hsl(228.5, 77.2%, 51.5%)" stroke-width="1.5"></path><path d="M1008.65 367.14L1157.68 375.52" stroke="hsl(228.5, 77.2%, 51.5%)" stroke-width="1.5"></path><path d="M1008.65 367.14L832.82 358.72" stroke="hsl(228.5, 77.2%, 51.5%)" stroke-width="1.5"></path><path d="M1008.65 367.14L1151.54 536.06" stroke="hsl(228.5, 77.2%, 51.5%)" stroke-width="1.5"></path><path d="M1008.65 367.14L824.4 500.56" stroke="hsl(228.5, 77.2%, 51.5%)" stroke-width="1.5"></path><path d="M1402.25 348.5L1402.25 348.5" stroke="hsl(228.5, 77.2%, 51.5%)" stroke-width="1.5"></path><path d="M1402.25 348.5L1400.35 247.14" stroke="hsl(228.5, 77.2%, 51.5%)" stroke-width="1.5"></path><path d="M1402.25 348.5L1427.11 508.13" stroke="hsl(228.5, 77.2%, 51.5%)" stroke-width="1.5"></path><path d="M1402.25 348.5L1587.31 351.78" stroke="hsl(228.5, 77.2%, 51.5%)" stroke-width="1.5"></path><path d="M1402.25 348.5L1252.85 198.37" stroke="hsl(228.5, 77.2%, 51.5%)" stroke-width="1.5"></path><path d="M1402.25 348.5L1553.86 196.83" stroke="hsl(228.5, 77.2%, 51.5%)" stroke-width="1.5"></path><path d="M1427.11 508.13L1427.11 508.13" stroke="hsl(228.5, 77.2%, 51.5%)" stroke-width="1.5"></path><path d="M1427.11 508.13L1400.38 660.5" stroke="hsl(228.5, 77.2%, 51.5%)" stroke-width="1.5"></path><path d="M1427.11 508.13L1586.75 545.87" stroke="hsl(228.5, 77.2%, 51.5%)" stroke-width="1.5"></path><path d="M1567.97 707.64L1567.97 707.64" stroke="hsl(228.5, 77.2%, 51.5%)" stroke-width="1.5"></path><path d="M1567.97 707.64L1586.75 545.87" stroke="hsl(228.5, 77.2%, 51.5%)" stroke-width="1.5"></path><path d="M1567.97 707.64L1400.38 660.5" stroke="hsl(228.5, 77.2%, 51.5%)" stroke-width="1.5"></path><path d="M1567.97 707.64L1427.11 508.13" stroke="hsl(228.5, 77.2%, 51.5%)" stroke-width="1.5"></path><path d="M1567.97 707.64L1249.39 705.36" stroke="hsl(228.5, 77.2%, 51.5%)" stroke-width="1.5"></path><path d="M1567.97 707.64L1261.48 526.05" stroke="hsl(228.5, 77.2%, 51.5%)" stroke-width="1.5"></path><path d="M-41.41 649.93L-41.41 649.93" stroke="hsl(228.5, 77.2%, 51.5%)" stroke-width="1.5"></path><path d="M-41.41 649.93L78.59 496.8" stroke="hsl(228.5, 77.2%, 51.5%)" stroke-width="1.5"></path><path d="M-41.41 649.93L248.47 710.62" stroke="hsl(228.5, 77.2%, 51.5%)" stroke-width="1.5"></path><path d="M-41.41 649.93L227.51 514.42" stroke="hsl(228.5, 77.2%, 51.5%)" stroke-width="1.5"></path><path d="M-41.41 649.93L356.92 653.86" stroke="hsl(228.5, 77.2%, 51.5%)" stroke-width="1.5"></path><path d="M78.59 496.8L78.59 496.8" stroke="hsl(228.5, 77.2%, 51.5%)" stroke-width="1.5"></path><path d="M78.59 496.8L227.51 514.42" stroke="hsl(228.5, 77.2%, 51.5%)" stroke-width="1.5"></path><path d="M227.51 514.42L227.51 514.42" stroke="hsl(228.5, 77.2%, 51.5%)" stroke-width="1.5"></path><path d="M227.51 514.42L379.33 511.71" stroke="hsl(228.5, 77.2%, 51.5%)" stroke-width="1.5"></path><path d="M227.51 514.42L356.92 653.86" stroke="hsl(228.5, 77.2%, 51.5%)" stroke-width="1.5"></path><path d="M248.47 710.62L248.47 710.62" stroke="hsl(228.5, 77.2%, 51.5%)" stroke-width="1.5"></path><path d="M248.47 710.62L356.92 653.86" stroke="hsl(228.5, 77.2%, 51.5%)" stroke-width="1.5"></path><path d="M248.47 710.62L227.51 514.42" stroke="hsl(228.5, 77.2%, 51.5%)" stroke-width="1.5"></path><path d="M248.47 710.62L379.33 511.71" stroke="hsl(228.5, 77.2%, 51.5%)" stroke-width="1.5"></path><path d="M248.47 710.62L78.59 496.8" stroke="hsl(228.5, 77.2%, 51.5%)" stroke-width="1.5"></path><path d="M379.33 511.71L379.33 511.71" stroke="hsl(228.5, 77.2%, 51.5%)" stroke-width="1.5"></path><path d="M379.33 511.71L356.92 653.86" stroke="hsl(228.5, 77.2%, 51.5%)" stroke-width="1.5"></path><path d="M379.33 511.71L526.89 492.78" stroke="hsl(228.5, 77.2%, 51.5%)" stroke-width="1.5"></path><path d="M379.33 511.71L528.74 704.62" stroke="hsl(228.5, 77.2%, 51.5%)" stroke-width="1.5"></path><path d="M356.92 653.86L356.92 653.86" stroke="hsl(228.5, 77.2%, 51.5%)" stroke-width="1.5"></path><path d="M526.89 492.78L526.89 492.78" stroke="hsl(228.5, 77.2%, 51.5%)" stroke-width="1.5"></path><path d="M526.89 492.78L674.24 525.6" stroke="hsl(228.5, 77.2%, 51.5%)" stroke-width="1.5"></path><path d="M526.89 492.78L528.74 704.62" stroke="hsl(228.5, 77.2%, 51.5%)" stroke-width="1.5"></path><path d="M526.89 492.78L356.92 653.86" stroke="hsl(228.5, 77.2%, 51.5%)" stroke-width="1.5"></path><path d="M526.89 492.78L654.27 710.25" stroke="hsl(228.5, 77.2%, 51.5%)" stroke-width="1.5"></path><path d="M528.74 704.62L528.74 704.62" stroke="hsl(228.5, 77.2%, 51.5%)" stroke-width="1.5"></path><path d="M528.74 704.62L654.27 710.25" stroke="hsl(228.5, 77.2%, 51.5%)" stroke-width="1.5"></path><path d="M528.74 704.62L356.92 653.86" stroke="hsl(228.5, 77.2%, 51.5%)" stroke-width="1.5"></path><path d="M528.74 704.62L674.24 525.6" stroke="hsl(228.5, 77.2%, 51.5%)" stroke-width="1.5"></path><path d="M674.24 525.6L674.24 525.6" stroke="hsl(228.5, 77.2%, 51.5%)" stroke-width="1.5"></path><path d="M674.24 525.6L824.4 500.56" stroke="hsl(228.5, 77.2%, 51.5%)" stroke-width="1.5"></path><path d="M674.24 525.6L654.27 710.25" stroke="hsl(228.5, 77.2%, 51.5%)" stroke-width="1.5"></path><path d="M674.24 525.6L832.82 358.72" stroke="hsl(228.5, 77.2%, 51.5%)" stroke-width="1.5"></path><path d="M654.27 710.25L654.27 710.25" stroke="hsl(228.5, 77.2%, 51.5%)" stroke-width="1.5"></path><path d="M654.27 710.25L853.7 710.55" stroke="hsl(228.5, 77.2%, 51.5%)" stroke-width="1.5"></path><path d="M654.27 710.25L824.4 500.56" stroke="hsl(228.5, 77.2%, 51.5%)" stroke-width="1.5"></path><path d="M832.82 358.72L832.82 358.72" stroke="hsl(228.5, 77.2%, 51.5%)" stroke-width="1.5"></path><path d="M832.82 358.72L824.4 500.56" stroke="hsl(228.5, 77.2%, 51.5%)" stroke-width="1.5"></path><path d="M824.4 500.56L824.4 500.56" stroke="hsl(228.5, 77.2%, 51.5%)" stroke-width="1.5"></path><path d="M853.7 710.55L853.7 710.55" stroke="hsl(228.5, 77.2%, 51.5%)" stroke-width="1.5"></path><path d="M853.7 710.55L1005.18 664.98" stroke="hsl(228.5, 77.2%, 51.5%)" stroke-width="1.5"></path><path d="M853.7 710.55L824.4 500.56" stroke="hsl(228.5, 77.2%, 51.5%)" stroke-width="1.5"></path><path d="M1005.18 664.98L1005.18 664.98" stroke="hsl(228.5, 77.2%, 51.5%)" stroke-width="1.5"></path><path d="M1005.18 664.98L1095.91 671.49" stroke="hsl(228.5, 77.2%, 51.5%)" stroke-width="1.5"></path><path d="M1005.18 664.98L1151.54 536.06" stroke="hsl(228.5, 77.2%, 51.5%)" stroke-width="1.5"></path><path d="M1150.43 108.93L1150.43 108.93" stroke="hsl(228.5, 77.2%, 51.5%)" stroke-width="1.5"></path><path d="M1150.43 108.93L1283.01 103.5" stroke="hsl(228.5, 77.2%, 51.5%)" stroke-width="1.5"></path><path d="M1150.43 108.93L1252.85 198.37" stroke="hsl(228.5, 77.2%, 51.5%)" stroke-width="1.5"></path><path d="M1150.43 108.93L1410 102.68" stroke="hsl(228.5, 77.2%, 51.5%)" stroke-width="1.5"></path><path d="M1150.43 108.93L1157.68 375.52" stroke="hsl(228.5, 77.2%, 51.5%)" stroke-width="1.5"></path><path d="M1157.68 375.52L1157.68 375.52" stroke="hsl(228.5, 77.2%, 51.5%)" stroke-width="1.5"></path><path d="M1157.68 375.52L1151.54 536.06" stroke="hsl(228.5, 77.2%, 51.5%)" stroke-width="1.5"></path><path d="M1157.68 375.52L1261.48 526.05" stroke="hsl(228.5, 77.2%, 51.5%)" stroke-width="1.5"></path><path d="M1157.68 375.52L1252.85 198.37" stroke="hsl(228.5, 77.2%, 51.5%)" stroke-width="1.5"></path><path d="M1157.68 375.52L1402.25 348.5" stroke="hsl(228.5, 77.2%, 51.5%)" stroke-width="1.5"></path><path d="M1151.54 536.06L1151.54 536.06" stroke="hsl(228.5, 77.2%, 51.5%)" stroke-width="1.5"></path><path d="M1151.54 536.06L1261.48 526.05" stroke="hsl(228.5, 77.2%, 51.5%)" stroke-width="1.5"></path><path d="M1151.54 536.06L1095.91 671.49" stroke="hsl(228.5, 77.2%, 51.5%)" stroke-width="1.5"></path><path d="M1095.91 671.49L1095.91 671.49" stroke="hsl(228.5, 77.2%, 51.5%)" stroke-width="1.5"></path><path d="M1095.91 671.49L1249.39 705.36" stroke="hsl(228.5, 77.2%, 51.5%)" stroke-width="1.5"></path><path d="M1095.91 671.49L1261.48 526.05" stroke="hsl(228.5, 77.2%, 51.5%)" stroke-width="1.5"></path><path d="M1095.91 671.49L853.7 710.55" stroke="hsl(228.5, 77.2%, 51.5%)" stroke-width="1.5"></path><path d="M1283.01 103.5L1283.01 103.5" stroke="hsl(228.5, 77.2%, 51.5%)" stroke-width="1.5"></path><path d="M1283.01 103.5L1252.85 198.37" stroke="hsl(228.5, 77.2%, 51.5%)" stroke-width="1.5"></path><path d="M1283.01 103.5L1410 102.68" stroke="hsl(228.5, 77.2%, 51.5%)" stroke-width="1.5"></path><path d="M1252.85 198.37L1252.85 198.37" stroke="hsl(228.5, 77.2%, 51.5%)" stroke-width="1.5"></path><path d="M1252.85 198.37L1400.35 247.14" stroke="hsl(228.5, 77.2%, 51.5%)" stroke-width="1.5"></path><path d="M1252.85 198.37L1410 102.68" stroke="hsl(228.5, 77.2%, 51.5%)" stroke-width="1.5"></path><path d="M1261.48 526.05L1261.48 526.05" stroke="hsl(228.5, 77.2%, 51.5%)" stroke-width="1.5"></path><path d="M1261.48 526.05L1427.11 508.13" stroke="hsl(228.5, 77.2%, 51.5%)" stroke-width="1.5"></path><path d="M1261.48 526.05L1249.39 705.36" stroke="hsl(228.5, 77.2%, 51.5%)" stroke-width="1.5"></path><path d="M1249.39 705.36L1249.39 705.36" stroke="hsl(228.5, 77.2%, 51.5%)" stroke-width="1.5"></path><path d="M1249.39 705.36L1400.38 660.5" stroke="hsl(228.5, 77.2%, 51.5%)" stroke-width="1.5"></path><path d="M1461.72 -103.84L1461.72 -103.84" stroke="hsl(228.5, 77.2%, 51.5%)" stroke-width="1.5"></path><path d="M1461.72 -103.84L1608.31 -68.93" stroke="hsl(228.5, 77.2%, 51.5%)" stroke-width="1.5"></path><path d="M1461.72 -103.84L1410 102.68" stroke="hsl(228.5, 77.2%, 51.5%)" stroke-width="1.5"></path><path d="M1461.72 -103.84L1544.72 92.84" stroke="hsl(228.5, 77.2%, 51.5%)" stroke-width="1.5"></path><path d="M1410 102.68L1410 102.68" stroke="hsl(228.5, 77.2%, 51.5%)" stroke-width="1.5"></path><path d="M1410 102.68L1544.72 92.84" stroke="hsl(228.5, 77.2%, 51.5%)" stroke-width="1.5"></path><path d="M1400.35 247.14L1400.35 247.14" stroke="hsl(228.5, 77.2%, 51.5%)" stroke-width="1.5"></path><path d="M1400.35 247.14L1410 102.68" stroke="hsl(228.5, 77.2%, 51.5%)" stroke-width="1.5"></path><path d="M1400.35 247.14L1553.86 196.83" stroke="hsl(228.5, 77.2%, 51.5%)" stroke-width="1.5"></path><path d="M1400.35 247.14L1283.01 103.5" stroke="hsl(228.5, 77.2%, 51.5%)" stroke-width="1.5"></path><path d="M1400.38 660.5L1400.38 660.5" stroke="hsl(228.5, 77.2%, 51.5%)" stroke-width="1.5"></path><path d="M1400.38 660.5L1261.48 526.05" stroke="hsl(228.5, 77.2%, 51.5%)" stroke-width="1.5"></path><path d="M1608.31 -68.93L1608.31 -68.93" stroke="hsl(228.5, 77.2%, 51.5%)" stroke-width="1.5"></path><path d="M1608.31 -68.93L1544.72 92.84" stroke="hsl(228.5, 77.2%, 51.5%)" stroke-width="1.5"></path><path d="M1544.72 92.84L1544.72 92.84" stroke="hsl(228.5, 77.2%, 51.5%)" stroke-width="1.5"></path><path d="M1544.72 92.84L1553.86 196.83" stroke="hsl(228.5, 77.2%, 51.5%)" stroke-width="1.5"></path><path d="M1544.72 92.84L1400.35 247.14" stroke="hsl(228.5, 77.2%, 51.5%)" stroke-width="1.5"></path><path d="M1544.72 92.84L1283.01 103.5" stroke="hsl(228.5, 77.2%, 51.5%)" stroke-width="1.5"></path><path d="M1553.86 196.83L1553.86 196.83" stroke="hsl(228.5, 77.2%, 51.5%)" stroke-width="1.5"></path><path d="M1553.86 196.83L1587.31 351.78" stroke="hsl(228.5, 77.2%, 51.5%)" stroke-width="1.5"></path><path d="M1553.86 196.83L1410 102.68" stroke="hsl(228.5, 77.2%, 51.5%)" stroke-width="1.5"></path><path d="M1587.31 351.78L1587.31 351.78" stroke="hsl(228.5, 77.2%, 51.5%)" stroke-width="1.5"></path><path d="M1587.31 351.78L1586.75 545.87" stroke="hsl(228.5, 77.2%, 51.5%)" stroke-width="1.5"></path><path d="M1587.31 351.78L1400.35 247.14" stroke="hsl(228.5, 77.2%, 51.5%)" stroke-width="1.5"></path><path d="M1587.31 351.78L1427.11 508.13" stroke="hsl(228.5, 77.2%, 51.5%)" stroke-width="1.5"></path><path d="M1587.31 351.78L1544.72 92.84" stroke="hsl(228.5, 77.2%, 51.5%)" stroke-width="1.5"></path><path d="M1586.75 545.87L1586.75 545.87" stroke="hsl(228.5, 77.2%, 51.5%)" stroke-width="1.5"></path><path d="M1586.75 545.87L1400.38 660.5" stroke="hsl(228.5, 77.2%, 51.5%)" stroke-width="1.5"></path><circle r="25" cx="-111.48" cy="538.35" fill="url(#SvgjsRadialGradient1029)"></circle><circle r="25" cx="96.56" cy="650.03" fill="url(#SvgjsRadialGradient1029)"></circle><circle r="25" cx="1008.65" cy="367.14" fill="url(#SvgjsRadialGradient1029)"></circle><circle r="25" cx="1402.25" cy="348.5" fill="url(#SvgjsRadialGradient1029)"></circle><circle r="25" cx="1427.11" cy="508.13" fill="url(#SvgjsRadialGradient1029)"></circle><circle r="25" cx="1567.97" cy="707.64" fill="url(#SvgjsRadialGradient1029)"></circle><circle r="5" cx="-41.41" cy="649.93" fill="#8b9ad9"></circle><circle r="5" cx="78.59" cy="496.8" fill="#8b9ad9"></circle><circle r="5" cx="227.51" cy="514.42" fill="#8b9ad9"></circle><circle r="5" cx="248.47" cy="710.62" fill="#8b9ad9"></circle><circle r="5" cx="379.33" cy="511.71" fill="#8b9ad9"></circle><circle r="5" cx="356.92" cy="653.86" fill="#8b9ad9"></circle><circle r="5" cx="526.89" cy="492.78" fill="#8b9ad9"></circle><circle r="5" cx="528.74" cy="704.62" fill="#8b9ad9"></circle><circle r="5" cx="674.24" cy="525.6" fill="#8b9ad9"></circle><circle r="5" cx="654.27" cy="710.25" fill="#8b9ad9"></circle><circle r="5" cx="832.82" cy="358.72" fill="#8b9ad9"></circle><circle r="5" cx="824.4" cy="500.56" fill="#8b9ad9"></circle><circle r="5" cx="853.7" cy="710.55" fill="#8b9ad9"></circle><circle r="5" cx="1005.18" cy="664.98" fill="#8b9ad9"></circle><circle r="5" cx="1150.43" cy="108.93" fill="#8b9ad9"></circle><circle r="5" cx="1157.68" cy="375.52" fill="#8b9ad9"></circle><circle r="5" cx="1151.54" cy="536.06" fill="#8b9ad9"></circle><circle r="5" cx="1095.91" cy="671.49" fill="#8b9ad9"></circle><circle r="5" cx="1283.01" cy="103.5" fill="#8b9ad9"></circle><circle r="5" cx="1252.85" cy="198.37" fill="#8b9ad9"></circle><circle r="5" cx="1261.48" cy="526.05" fill="#8b9ad9"></circle><circle r="5" cx="1249.39" cy="705.36" fill="#8b9ad9"></circle><circle r="5" cx="1461.72" cy="-103.84" fill="#8b9ad9"></circle><circle r="5" cx="1410" cy="102.68" fill="#8b9ad9"></circle><circle r="5" cx="1400.35" cy="247.14" fill="#8b9ad9"></circle><circle r="5" cx="1400.38" cy="660.5" fill="#8b9ad9"></circle><circle r="5" cx="1608.31" cy="-68.93" fill="#8b9ad9"></circle><circle r="5" cx="1544.72" cy="92.84" fill="#8b9ad9"></circle><circle r="5" cx="1553.86" cy="196.83" fill="#8b9ad9"></circle><circle r="5" cx="1587.31" cy="351.78" fill="#8b9ad9"></circle><circle r="5" cx="1586.75" cy="545.87" fill="#8b9ad9"></circle></g><defs><mask id="SvgjsMask1028"><rect width="1440" height="574" fill="#ffffff"></rect></mask><radialGradient id="SvgjsRadialGradient1029"><stop stop-color="#ffffff" offset="0.1"></stop><stop stop-color="#1735b3" offset="0.2"></stop><stop stop-color="rgba(23, 53, 179, 0)" offset="1"></stop></radialGradient></defs></svg>