<svg xmlns="http://www.w3.org/2000/svg" version="1.1" xmlns:xlink="http://www.w3.org/1999/xlink" xmlns:svgjs="http://svgjs.com/svgjs" width="1434" height="486" preserveAspectRatio="none" viewBox="0 0 1434 486"><g mask="url(&quot;#SvgjsMask1600&quot;)" fill="none"><rect width="1434" height="486" x="0" y="0" fill="#0e2a47"></rect><path d="M-74.16 392.76L-74.16 392.76" stroke="#132e65" stroke-width="1.5"></path><path d="M-74.16 392.76L-43.18 562.4" stroke="#132e65" stroke-width="1.5"></path><path d="M-74.16 392.76L104.5 401.29" stroke="#132e65" stroke-width="1.5"></path><path d="M-74.16 392.76L102.52 497.65" stroke="#132e65" stroke-width="1.5"></path><path d="M-74.16 392.76L203.73 528.85" stroke="#132e65" stroke-width="1.5"></path><path d="M-43.18 562.4L-43.18 562.4" stroke="#132e65" stroke-width="1.5"></path><path d="M-43.18 562.4L102.52 497.65" stroke="#132e65" stroke-width="1.5"></path><path d="M-43.18 562.4L61.37 687.24" stroke="#132e65" stroke-width="1.5"></path><path d="M-43.18 562.4L104.5 401.29" stroke="#132e65" stroke-width="1.5"></path><path d="M-43.18 562.4L203.73 528.85" stroke="#132e65" stroke-width="1.5"></path><path d="M-43.18 562.4L260.33 642.14" stroke="#132e65" stroke-width="1.5"></path><path d="M104.5 401.29L104.5 401.29" stroke="#132e65" stroke-width="1.5"></path><path d="M104.5 401.29L102.52 497.65" stroke="#132e65" stroke-width="1.5"></path><path d="M104.5 401.29L243.1 396.92" stroke="#132e65" stroke-width="1.5"></path><path d="M104.5 401.29L203.73 528.85" stroke="#132e65" stroke-width="1.5"></path><path d="M104.5 401.29L379.62 343.44" stroke="#132e65" stroke-width="1.5"></path><path d="M102.52 497.65L102.52 497.65" stroke="#132e65" stroke-width="1.5"></path><path d="M102.52 497.65L203.73 528.85" stroke="#132e65" stroke-width="1.5"></path><path d="M102.52 497.65L243.1 396.92" stroke="#132e65" stroke-width="1.5"></path><path d="M102.52 497.65L61.37 687.24" stroke="#132e65" stroke-width="1.5"></path><path d="M61.37 687.24L61.37 687.24" stroke="#132e65" stroke-width="1.5"></path><path d="M61.37 687.24L260.33 642.14" stroke="#132e65" stroke-width="1.5"></path><path d="M61.37 687.24L203.73 528.85" stroke="#132e65" stroke-width="1.5"></path><path d="M61.37 687.24L104.5 401.29" stroke="#132e65" stroke-width="1.5"></path><path d="M243.1 396.92L243.1 396.92" stroke="#132e65" stroke-width="1.5"></path><path d="M243.1 396.92L203.73 528.85" stroke="#132e65" stroke-width="1.5"></path><path d="M243.1 396.92L379.62 343.44" stroke="#132e65" stroke-width="1.5"></path><path d="M243.1 396.92L376.84 555.71" stroke="#132e65" stroke-width="1.5"></path><path d="M203.73 528.85L203.73 528.85" stroke="#132e65" stroke-width="1.5"></path><path d="M203.73 528.85L260.33 642.14" stroke="#132e65" stroke-width="1.5"></path><path d="M260.33 642.14L260.33 642.14" stroke="#132e65" stroke-width="1.5"></path><path d="M260.33 642.14L376.84 555.71" stroke="#132e65" stroke-width="1.5"></path><path d="M260.33 642.14L392.05 708.01" stroke="#132e65" stroke-width="1.5"></path><path d="M379.62 343.44L379.62 343.44" stroke="#132e65" stroke-width="1.5"></path><path d="M379.62 343.44L527.67 383.95" stroke="#132e65" stroke-width="1.5"></path><path d="M379.62 343.44L512.25 257.93" stroke="#132e65" stroke-width="1.5"></path><path d="M379.62 343.44L376.84 555.71" stroke="#132e65" stroke-width="1.5"></path><path d="M379.62 343.44L203.73 528.85" stroke="#132e65" stroke-width="1.5"></path><path d="M379.62 343.44L527.22 556.97" stroke="#132e65" stroke-width="1.5"></path><path d="M376.84 555.71L376.84 555.71" stroke="#132e65" stroke-width="1.5"></path><path d="M376.84 555.71L527.22 556.97" stroke="#132e65" stroke-width="1.5"></path><path d="M376.84 555.71L392.05 708.01" stroke="#132e65" stroke-width="1.5"></path><path d="M376.84 555.71L203.73 528.85" stroke="#132e65" stroke-width="1.5"></path><path d="M392.05 708.01L392.05 708.01" stroke="#132e65" stroke-width="1.5"></path><path d="M392.05 708.01L533.13 702.47" stroke="#132e65" stroke-width="1.5"></path><path d="M392.05 708.01L527.22 556.97" stroke="#132e65" stroke-width="1.5"></path><path d="M512.25 257.93L512.25 257.93" stroke="#132e65" stroke-width="1.5"></path><path d="M512.25 257.93L527.67 383.95" stroke="#132e65" stroke-width="1.5"></path><path d="M527.67 383.95L527.67 383.95" stroke="#132e65" stroke-width="1.5"></path><path d="M527.67 383.95L664.17 351.9" stroke="#132e65" stroke-width="1.5"></path><path d="M527.67 383.95L527.22 556.97" stroke="#132e65" stroke-width="1.5"></path><path d="M527.22 556.97L527.22 556.97" stroke="#132e65" stroke-width="1.5"></path><path d="M527.22 556.97L533.13 702.47" stroke="#132e65" stroke-width="1.5"></path><path d="M527.22 556.97L677.03 553.07" stroke="#132e65" stroke-width="1.5"></path><path d="M533.13 702.47L533.13 702.47" stroke="#132e65" stroke-width="1.5"></path><path d="M533.13 702.47L674.71 678.16" stroke="#132e65" stroke-width="1.5"></path><path d="M533.13 702.47L677.03 553.07" stroke="#132e65" stroke-width="1.5"></path><path d="M533.13 702.47L376.84 555.71" stroke="#132e65" stroke-width="1.5"></path><path d="M533.13 702.47L260.33 642.14" stroke="#132e65" stroke-width="1.5"></path><path d="M668.99 222.26L668.99 222.26" stroke="#132e65" stroke-width="1.5"></path><path d="M668.99 222.26L664.17 351.9" stroke="#132e65" stroke-width="1.5"></path><path d="M668.99 222.26L811.3 235.42" stroke="#132e65" stroke-width="1.5"></path><path d="M668.99 222.26L512.25 257.93" stroke="#132e65" stroke-width="1.5"></path><path d="M668.99 222.26L527.67 383.95" stroke="#132e65" stroke-width="1.5"></path><path d="M668.99 222.26L849.36 364.37" stroke="#132e65" stroke-width="1.5"></path><path d="M668.99 222.26L965.73 246.58" stroke="#132e65" stroke-width="1.5"></path><path d="M664.17 351.9L664.17 351.9" stroke="#132e65" stroke-width="1.5"></path><path d="M664.17 351.9L512.25 257.93" stroke="#132e65" stroke-width="1.5"></path><path d="M664.17 351.9L849.36 364.37" stroke="#132e65" stroke-width="1.5"></path><path d="M664.17 351.9L811.3 235.42" stroke="#132e65" stroke-width="1.5"></path><path d="M677.03 553.07L677.03 553.07" stroke="#132e65" stroke-width="1.5"></path><path d="M677.03 553.07L674.71 678.16" stroke="#132e65" stroke-width="1.5"></path><path d="M674.71 678.16L674.71 678.16" stroke="#132e65" stroke-width="1.5"></path><path d="M674.71 678.16L812.19 652.87" stroke="#132e65" stroke-width="1.5"></path><path d="M811.3 235.42L811.3 235.42" stroke="#132e65" stroke-width="1.5"></path><path d="M811.3 235.42L849.36 364.37" stroke="#132e65" stroke-width="1.5"></path><path d="M811.3 235.42L965.73 246.58" stroke="#132e65" stroke-width="1.5"></path><path d="M811.3 235.42L948.95 345.3" stroke="#132e65" stroke-width="1.5"></path><path d="M849.36 364.37L849.36 364.37" stroke="#132e65" stroke-width="1.5"></path><path d="M849.36 364.37L948.95 345.3" stroke="#132e65" stroke-width="1.5"></path><path d="M849.36 364.37L815.35 492.43" stroke="#132e65" stroke-width="1.5"></path><path d="M849.36 364.37L965.73 246.58" stroke="#132e65" stroke-width="1.5"></path><path d="M815.35 492.43L815.35 492.43" stroke="#132e65" stroke-width="1.5"></path><path d="M815.35 492.43L677.03 553.07" stroke="#132e65" stroke-width="1.5"></path><path d="M815.35 492.43L812.19 652.87" stroke="#132e65" stroke-width="1.5"></path><path d="M815.35 492.43L1009.93 498.6" stroke="#132e65" stroke-width="1.5"></path><path d="M815.35 492.43L948.95 345.3" stroke="#132e65" stroke-width="1.5"></path><path d="M812.19 652.87L812.19 652.87" stroke="#132e65" stroke-width="1.5"></path><path d="M812.19 652.87L677.03 553.07" stroke="#132e65" stroke-width="1.5"></path><path d="M812.19 652.87L973.05 712.23" stroke="#132e65" stroke-width="1.5"></path><path d="M812.19 652.87L1009.93 498.6" stroke="#132e65" stroke-width="1.5"></path><path d="M992.5 -41.23L992.5 -41.23" stroke="#132e65" stroke-width="1.5"></path><path d="M992.5 -41.23L1003.27 88.66" stroke="#132e65" stroke-width="1.5"></path><path d="M1003.27 88.66L1003.27 88.66" stroke="#132e65" stroke-width="1.5"></path><path d="M1003.27 88.66L1118.77 48.87" stroke="#132e65" stroke-width="1.5"></path><path d="M1003.27 88.66L965.73 246.58" stroke="#132e65" stroke-width="1.5"></path><path d="M1003.27 88.66L1117.74 230.15" stroke="#132e65" stroke-width="1.5"></path><path d="M965.73 246.58L965.73 246.58" stroke="#132e65" stroke-width="1.5"></path><path d="M965.73 246.58L948.95 345.3" stroke="#132e65" stroke-width="1.5"></path><path d="M965.73 246.58L1117.74 230.15" stroke="#132e65" stroke-width="1.5"></path><path d="M948.95 345.3L948.95 345.3" stroke="#132e65" stroke-width="1.5"></path><path d="M1009.93 498.6L1009.93 498.6" stroke="#132e65" stroke-width="1.5"></path><path d="M1009.93 498.6L1092.81 510.75" stroke="#132e65" stroke-width="1.5"></path><path d="M1009.93 498.6L1097.27 388.78" stroke="#132e65" stroke-width="1.5"></path><path d="M1009.93 498.6L948.95 345.3" stroke="#132e65" stroke-width="1.5"></path><path d="M973.05 712.23L973.05 712.23" stroke="#132e65" stroke-width="1.5"></path><path d="M973.05 712.23L1009.93 498.6" stroke="#132e65" stroke-width="1.5"></path><path d="M973.05 712.23L1092.81 510.75" stroke="#132e65" stroke-width="1.5"></path><path d="M973.05 712.23L815.35 492.43" stroke="#132e65" stroke-width="1.5"></path><path d="M973.05 712.23L674.71 678.16" stroke="#132e65" stroke-width="1.5"></path><path d="M973.05 712.23L1289.49 638.73" stroke="#132e65" stroke-width="1.5"></path><path d="M1140.65 -111.27L1140.65 -111.27" stroke="#132e65" stroke-width="1.5"></path><path d="M1140.65 -111.27L1118.77 48.87" stroke="#132e65" stroke-width="1.5"></path><path d="M1140.65 -111.27L992.5 -41.23" stroke="#132e65" stroke-width="1.5"></path><path d="M1140.65 -111.27L1291.65 -41.01" stroke="#132e65" stroke-width="1.5"></path><path d="M1118.77 48.87L1118.77 48.87" stroke="#132e65" stroke-width="1.5"></path><path d="M1118.77 48.87L992.5 -41.23" stroke="#132e65" stroke-width="1.5"></path><path d="M1118.77 48.87L1117.74 230.15" stroke="#132e65" stroke-width="1.5"></path><path d="M1117.74 230.15L1117.74 230.15" stroke="#132e65" stroke-width="1.5"></path><path d="M1117.74 230.15L1237.84 257.22" stroke="#132e65" stroke-width="1.5"></path><path d="M1117.74 230.15L1097.27 388.78" stroke="#132e65" stroke-width="1.5"></path><path d="M1097.27 388.78L1097.27 388.78" stroke="#132e65" stroke-width="1.5"></path><path d="M1097.27 388.78L1092.81 510.75" stroke="#132e65" stroke-width="1.5"></path><path d="M1097.27 388.78L948.95 345.3" stroke="#132e65" stroke-width="1.5"></path><path d="M1092.81 510.75L1092.81 510.75" stroke="#132e65" stroke-width="1.5"></path><path d="M1092.81 510.75L1291.24 535.86" stroke="#132e65" stroke-width="1.5"></path><path d="M1291.65 -41.01L1291.65 -41.01" stroke="#132e65" stroke-width="1.5"></path><path d="M1291.65 -41.01L1445.97 -102.1" stroke="#132e65" stroke-width="1.5"></path><path d="M1291.65 -41.01L1118.77 48.87" stroke="#132e65" stroke-width="1.5"></path><path d="M1291.65 -41.01L992.5 -41.23" stroke="#132e65" stroke-width="1.5"></path><path d="M1291.65 -41.01L1237.84 257.22" stroke="#132e65" stroke-width="1.5"></path><path d="M1237.84 257.22L1237.84 257.22" stroke="#132e65" stroke-width="1.5"></path><path d="M1237.84 257.22L1272.94 339.32" stroke="#132e65" stroke-width="1.5"></path><path d="M1272.94 339.32L1272.94 339.32" stroke="#132e65" stroke-width="1.5"></path><path d="M1272.94 339.32L1391.44 351.13" stroke="#132e65" stroke-width="1.5"></path><path d="M1291.24 535.86L1291.24 535.86" stroke="#132e65" stroke-width="1.5"></path><path d="M1291.24 535.86L1289.49 638.73" stroke="#132e65" stroke-width="1.5"></path><path d="M1291.24 535.86L1419.53 512.14" stroke="#132e65" stroke-width="1.5"></path><path d="M1291.24 535.86L1422.22 662.89" stroke="#132e65" stroke-width="1.5"></path><path d="M1289.49 638.73L1289.49 638.73" stroke="#132e65" stroke-width="1.5"></path><path d="M1289.49 638.73L1422.22 662.89" stroke="#132e65" stroke-width="1.5"></path><path d="M1289.49 638.73L1419.53 512.14" stroke="#132e65" stroke-width="1.5"></path><path d="M1289.49 638.73L1092.81 510.75" stroke="#132e65" stroke-width="1.5"></path><path d="M1289.49 638.73L1272.94 339.32" stroke="#132e65" stroke-width="1.5"></path><path d="M1445.97 -102.1L1445.97 -102.1" stroke="#132e65" stroke-width="1.5"></path><path d="M1445.97 -102.1L1607.4 -64.4" stroke="#132e65" stroke-width="1.5"></path><path d="M1445.97 -102.1L1599.52 50.42" stroke="#132e65" stroke-width="1.5"></path><path d="M1445.97 -102.1L1140.65 -111.27" stroke="#132e65" stroke-width="1.5"></path><path d="M1445.97 -102.1L1408.72 255.76" stroke="#132e65" stroke-width="1.5"></path><path d="M1408.72 255.76L1408.72 255.76" stroke="#132e65" stroke-width="1.5"></path><path d="M1408.72 255.76L1391.44 351.13" stroke="#132e65" stroke-width="1.5"></path><path d="M1408.72 255.76L1272.94 339.32" stroke="#132e65" stroke-width="1.5"></path><path d="M1408.72 255.76L1237.84 257.22" stroke="#132e65" stroke-width="1.5"></path><path d="M1391.44 351.13L1391.44 351.13" stroke="#132e65" stroke-width="1.5"></path><path d="M1391.44 351.13L1419.53 512.14" stroke="#132e65" stroke-width="1.5"></path><path d="M1419.53 512.14L1419.53 512.14" stroke="#132e65" stroke-width="1.5"></path><path d="M1419.53 512.14L1422.22 662.89" stroke="#132e65" stroke-width="1.5"></path><path d="M1422.22 662.89L1422.22 662.89" stroke="#132e65" stroke-width="1.5"></path><path d="M1607.4 -64.4L1607.4 -64.4" stroke="#132e65" stroke-width="1.5"></path><path d="M1607.4 -64.4L1599.52 50.42" stroke="#132e65" stroke-width="1.5"></path><path d="M1607.4 -64.4L1594.38 227.03" stroke="#132e65" stroke-width="1.5"></path><path d="M1599.52 50.42L1599.52 50.42" stroke="#132e65" stroke-width="1.5"></path><path d="M1599.52 50.42L1594.38 227.03" stroke="#132e65" stroke-width="1.5"></path><path d="M1599.52 50.42L1408.72 255.76" stroke="#132e65" stroke-width="1.5"></path><path d="M1599.52 50.42L1291.65 -41.01" stroke="#132e65" stroke-width="1.5"></path><path d="M1599.52 50.42L1584.61 410.48" stroke="#132e65" stroke-width="1.5"></path><path d="M1594.38 227.03L1594.38 227.03" stroke="#132e65" stroke-width="1.5"></path><path d="M1594.38 227.03L1584.61 410.48" stroke="#132e65" stroke-width="1.5"></path><path d="M1594.38 227.03L1408.72 255.76" stroke="#132e65" stroke-width="1.5"></path><path d="M1594.38 227.03L1391.44 351.13" stroke="#132e65" stroke-width="1.5"></path><path d="M1584.61 410.48L1584.61 410.48" stroke="#132e65" stroke-width="1.5"></path><path d="M1584.61 410.48L1601.12 559.08" stroke="#132e65" stroke-width="1.5"></path><path d="M1584.61 410.48L1419.53 512.14" stroke="#132e65" stroke-width="1.5"></path><path d="M1584.61 410.48L1391.44 351.13" stroke="#132e65" stroke-width="1.5"></path><path d="M1584.61 410.48L1408.72 255.76" stroke="#132e65" stroke-width="1.5"></path><path d="M1584.61 410.48L1422.22 662.89" stroke="#132e65" stroke-width="1.5"></path><path d="M1601.12 559.08L1601.12 559.08" stroke="#132e65" stroke-width="1.5"></path><path d="M1601.12 559.08L1419.53 512.14" stroke="#132e65" stroke-width="1.5"></path><path d="M1601.12 559.08L1422.22 662.89" stroke="#132e65" stroke-width="1.5"></path><path d="M1601.12 559.08L1391.44 351.13" stroke="#132e65" stroke-width="1.5"></path><circle r="5" cx="-74.16" cy="392.76" fill="#132e65"></circle><circle r="5" cx="-43.18" cy="562.4" fill="#132e65"></circle><circle r="5" cx="104.5" cy="401.29" fill="#132e65"></circle><circle r="5" cx="102.52" cy="497.65" fill="#132e65"></circle><circle r="5" cx="61.37" cy="687.24" fill="#132e65"></circle><circle r="5" cx="243.1" cy="396.92" fill="#132e65"></circle><circle r="5" cx="203.73" cy="528.85" fill="#132e65"></circle><circle r="5" cx="260.33" cy="642.14" fill="#132e65"></circle><circle r="5" cx="379.62" cy="343.44" fill="#132e65"></circle><circle r="5" cx="376.84" cy="555.71" fill="#132e65"></circle><circle r="5" cx="392.05" cy="708.01" fill="#132e65"></circle><circle r="5" cx="512.25" cy="257.93" fill="#132e65"></circle><circle r="5" cx="527.67" cy="383.95" fill="#132e65"></circle><circle r="5" cx="527.22" cy="556.97" fill="#132e65"></circle><circle r="5" cx="533.13" cy="702.47" fill="#132e65"></circle><circle r="5" cx="668.99" cy="222.26" fill="#132e65"></circle><circle r="5" cx="664.17" cy="351.9" fill="#132e65"></circle><circle r="5" cx="677.03" cy="553.07" fill="#132e65"></circle><circle r="5" cx="674.71" cy="678.16" fill="#132e65"></circle><circle r="5" cx="811.3" cy="235.42" fill="#132e65"></circle><circle r="5" cx="849.36" cy="364.37" fill="#132e65"></circle><circle r="5" cx="815.35" cy="492.43" fill="#132e65"></circle><circle r="5" cx="812.19" cy="652.87" fill="#132e65"></circle><circle r="5" cx="992.5" cy="-41.23" fill="#132e65"></circle><circle r="5" cx="1003.27" cy="88.66" fill="#132e65"></circle><circle r="5" cx="965.73" cy="246.58" fill="#132e65"></circle><circle r="5" cx="948.95" cy="345.3" fill="#132e65"></circle><circle r="5" cx="1009.93" cy="498.6" fill="#132e65"></circle><circle r="5" cx="973.05" cy="712.23" fill="#132e65"></circle><circle r="5" cx="1140.65" cy="-111.27" fill="#132e65"></circle><circle r="5" cx="1118.77" cy="48.87" fill="#132e65"></circle><circle r="5" cx="1117.74" cy="230.15" fill="#132e65"></circle><circle r="5" cx="1097.27" cy="388.78" fill="#132e65"></circle><circle r="5" cx="1092.81" cy="510.75" fill="#132e65"></circle><circle r="5" cx="1291.65" cy="-41.01" fill="#132e65"></circle><circle r="5" cx="1237.84" cy="257.22" fill="#132e65"></circle><circle r="5" cx="1272.94" cy="339.32" fill="#132e65"></circle><circle r="5" cx="1291.24" cy="535.86" fill="#132e65"></circle><circle r="5" cx="1289.49" cy="638.73" fill="#132e65"></circle><circle r="5" cx="1445.97" cy="-102.1" fill="#132e65"></circle><circle r="5" cx="1408.72" cy="255.76" fill="#132e65"></circle><circle r="5" cx="1391.44" cy="351.13" fill="#132e65"></circle><circle r="5" cx="1419.53" cy="512.14" fill="#132e65"></circle><circle r="5" cx="1422.22" cy="662.89" fill="#132e65"></circle><circle r="5" cx="1607.4" cy="-64.4" fill="#132e65"></circle><circle r="5" cx="1599.52" cy="50.42" fill="#132e65"></circle><circle r="5" cx="1594.38" cy="227.03" fill="#132e65"></circle><circle r="5" cx="1584.61" cy="410.48" fill="#132e65"></circle><circle r="5" cx="1601.12" cy="559.08" fill="#132e65"></circle><path d="M-89.1 492.22L-89.1 492.22" stroke="hsl(228.5, 77.2%, 51.5%)" stroke-width="1.5"></path><path d="M-89.1 492.22L-100.55 675.48" stroke="hsl(228.5, 77.2%, 51.5%)" stroke-width="1.5"></path><path d="M-89.1 492.22L45.05 696.89" stroke="hsl(228.5, 77.2%, 51.5%)" stroke-width="1.5"></path><path d="M-89.1 492.22L243.56 529.16" stroke="hsl(228.5, 77.2%, 51.5%)" stroke-width="1.5"></path><path d="M-89.1 492.22L231.25 671.39" stroke="hsl(228.5, 77.2%, 51.5%)" stroke-width="1.5"></path><path d="M-89.1 492.22L373.42 493.41" stroke="hsl(228.5, 77.2%, 51.5%)" stroke-width="1.5"></path><path d="M231.25 671.39L231.25 671.39" stroke="hsl(228.5, 77.2%, 51.5%)" stroke-width="1.5"></path><path d="M231.25 671.39L343.2 668.33" stroke="hsl(228.5, 77.2%, 51.5%)" stroke-width="1.5"></path><path d="M231.25 671.39L243.56 529.16" stroke="hsl(228.5, 77.2%, 51.5%)" stroke-width="1.5"></path><path d="M231.25 671.39L45.05 696.89" stroke="hsl(228.5, 77.2%, 51.5%)" stroke-width="1.5"></path><path d="M231.25 671.39L373.42 493.41" stroke="hsl(228.5, 77.2%, 51.5%)" stroke-width="1.5"></path><path d="M343.2 668.33L343.2 668.33" stroke="hsl(228.5, 77.2%, 51.5%)" stroke-width="1.5"></path><path d="M343.2 668.33L510.51 690.71" stroke="hsl(228.5, 77.2%, 51.5%)" stroke-width="1.5"></path><path d="M343.2 668.33L243.56 529.16" stroke="hsl(228.5, 77.2%, 51.5%)" stroke-width="1.5"></path><path d="M343.2 668.33L373.42 493.41" stroke="hsl(228.5, 77.2%, 51.5%)" stroke-width="1.5"></path><path d="M343.2 668.33L369.17 388.73" stroke="hsl(228.5, 77.2%, 51.5%)" stroke-width="1.5"></path><path d="M343.2 668.33L641.16 663.74" stroke="hsl(228.5, 77.2%, 51.5%)" stroke-width="1.5"></path><path d="M533.89 383.06L533.89 383.06" stroke="hsl(228.5, 77.2%, 51.5%)" stroke-width="1.5"></path><path d="M533.89 383.06L650.5 391.84" stroke="hsl(228.5, 77.2%, 51.5%)" stroke-width="1.5"></path><path d="M641.16 663.74L641.16 663.74" stroke="hsl(228.5, 77.2%, 51.5%)" stroke-width="1.5"></path><path d="M641.16 663.74L676.25 554.52" stroke="hsl(228.5, 77.2%, 51.5%)" stroke-width="1.5"></path><path d="M641.16 663.74L510.51 690.71" stroke="hsl(228.5, 77.2%, 51.5%)" stroke-width="1.5"></path><path d="M641.16 663.74L816.33 687.22" stroke="hsl(228.5, 77.2%, 51.5%)" stroke-width="1.5"></path><path d="M641.16 663.74L807.82 504.65" stroke="hsl(228.5, 77.2%, 51.5%)" stroke-width="1.5"></path><path d="M641.16 663.74L650.5 391.84" stroke="hsl(228.5, 77.2%, 51.5%)" stroke-width="1.5"></path><path d="M790.66 392.62L790.66 392.62" stroke="hsl(228.5, 77.2%, 51.5%)" stroke-width="1.5"></path><path d="M790.66 392.62L807.82 504.65" stroke="hsl(228.5, 77.2%, 51.5%)" stroke-width="1.5"></path><path d="M790.66 392.62L650.5 391.84" stroke="hsl(228.5, 77.2%, 51.5%)" stroke-width="1.5"></path><path d="M790.66 392.62L950.12 370.95" stroke="hsl(228.5, 77.2%, 51.5%)" stroke-width="1.5"></path><path d="M790.66 392.62L676.25 554.52" stroke="hsl(228.5, 77.2%, 51.5%)" stroke-width="1.5"></path><path d="M790.66 392.62L978.48 236.52" stroke="hsl(228.5, 77.2%, 51.5%)" stroke-width="1.5"></path><path d="M790.66 392.62L533.89 383.06" stroke="hsl(228.5, 77.2%, 51.5%)" stroke-width="1.5"></path><path d="M1310.31 526.77L1310.31 526.77" stroke="hsl(228.5, 77.2%, 51.5%)" stroke-width="1.5"></path><path d="M1310.31 526.77L1452.69 559.8" stroke="hsl(228.5, 77.2%, 51.5%)" stroke-width="1.5"></path><path d="M1299.38 706.73L1299.38 706.73" stroke="hsl(228.5, 77.2%, 51.5%)" stroke-width="1.5"></path><path d="M1299.38 706.73L1426.78 666.46" stroke="hsl(228.5, 77.2%, 51.5%)" stroke-width="1.5"></path><path d="M1299.38 706.73L1310.31 526.77" stroke="hsl(228.5, 77.2%, 51.5%)" stroke-width="1.5"></path><path d="M1299.38 706.73L1452.69 559.8" stroke="hsl(228.5, 77.2%, 51.5%)" stroke-width="1.5"></path><path d="M1299.38 706.73L1095.05 507.58" stroke="hsl(228.5, 77.2%, 51.5%)" stroke-width="1.5"></path><path d="M1299.38 706.73L1580.4 655.64" stroke="hsl(228.5, 77.2%, 51.5%)" stroke-width="1.5"></path><path d="M1299.38 706.73L1003.88 655.64" stroke="hsl(228.5, 77.2%, 51.5%)" stroke-width="1.5"></path><path d="M1541.66 57.62L1541.66 57.62" stroke="hsl(228.5, 77.2%, 51.5%)" stroke-width="1.5"></path><path d="M1541.66 57.62L1430.52 111.31" stroke="hsl(228.5, 77.2%, 51.5%)" stroke-width="1.5"></path><path d="M1541.66 57.62L1586.15 196.41" stroke="hsl(228.5, 77.2%, 51.5%)" stroke-width="1.5"></path><path d="M-100.55 675.48L-100.55 675.48" stroke="hsl(228.5, 77.2%, 51.5%)" stroke-width="1.5"></path><path d="M-100.55 675.48L45.05 696.89" stroke="hsl(228.5, 77.2%, 51.5%)" stroke-width="1.5"></path><path d="M45.05 696.89L45.05 696.89" stroke="hsl(228.5, 77.2%, 51.5%)" stroke-width="1.5"></path><path d="M45.05 696.89L243.56 529.16" stroke="hsl(228.5, 77.2%, 51.5%)" stroke-width="1.5"></path><path d="M45.05 696.89L343.2 668.33" stroke="hsl(228.5, 77.2%, 51.5%)" stroke-width="1.5"></path><path d="M45.05 696.89L373.42 493.41" stroke="hsl(228.5, 77.2%, 51.5%)" stroke-width="1.5"></path><path d="M243.56 529.16L243.56 529.16" stroke="hsl(228.5, 77.2%, 51.5%)" stroke-width="1.5"></path><path d="M243.56 529.16L373.42 493.41" stroke="hsl(228.5, 77.2%, 51.5%)" stroke-width="1.5"></path><path d="M243.56 529.16L369.17 388.73" stroke="hsl(228.5, 77.2%, 51.5%)" stroke-width="1.5"></path><path d="M243.56 529.16L510.51 690.71" stroke="hsl(228.5, 77.2%, 51.5%)" stroke-width="1.5"></path><path d="M369.17 388.73L369.17 388.73" stroke="hsl(228.5, 77.2%, 51.5%)" stroke-width="1.5"></path><path d="M369.17 388.73L373.42 493.41" stroke="hsl(228.5, 77.2%, 51.5%)" stroke-width="1.5"></path><path d="M373.42 493.41L373.42 493.41" stroke="hsl(228.5, 77.2%, 51.5%)" stroke-width="1.5"></path><path d="M373.42 493.41L533.89 383.06" stroke="hsl(228.5, 77.2%, 51.5%)" stroke-width="1.5"></path><path d="M510.51 690.71L510.51 690.71" stroke="hsl(228.5, 77.2%, 51.5%)" stroke-width="1.5"></path><path d="M510.51 690.71L676.25 554.52" stroke="hsl(228.5, 77.2%, 51.5%)" stroke-width="1.5"></path><path d="M510.51 690.71L373.42 493.41" stroke="hsl(228.5, 77.2%, 51.5%)" stroke-width="1.5"></path><path d="M510.51 690.71L231.25 671.39" stroke="hsl(228.5, 77.2%, 51.5%)" stroke-width="1.5"></path><path d="M650.5 391.84L650.5 391.84" stroke="hsl(228.5, 77.2%, 51.5%)" stroke-width="1.5"></path><path d="M650.5 391.84L676.25 554.52" stroke="hsl(228.5, 77.2%, 51.5%)" stroke-width="1.5"></path><path d="M650.5 391.84L807.82 504.65" stroke="hsl(228.5, 77.2%, 51.5%)" stroke-width="1.5"></path><path d="M650.5 391.84L369.17 388.73" stroke="hsl(228.5, 77.2%, 51.5%)" stroke-width="1.5"></path><path d="M676.25 554.52L676.25 554.52" stroke="hsl(228.5, 77.2%, 51.5%)" stroke-width="1.5"></path><path d="M676.25 554.52L807.82 504.65" stroke="hsl(228.5, 77.2%, 51.5%)" stroke-width="1.5"></path><path d="M676.25 554.52L816.33 687.22" stroke="hsl(228.5, 77.2%, 51.5%)" stroke-width="1.5"></path><path d="M807.82 504.65L807.82 504.65" stroke="hsl(228.5, 77.2%, 51.5%)" stroke-width="1.5"></path><path d="M807.82 504.65L816.33 687.22" stroke="hsl(228.5, 77.2%, 51.5%)" stroke-width="1.5"></path><path d="M816.33 687.22L816.33 687.22" stroke="hsl(228.5, 77.2%, 51.5%)" stroke-width="1.5"></path><path d="M816.33 687.22L1003.88 655.64" stroke="hsl(228.5, 77.2%, 51.5%)" stroke-width="1.5"></path><path d="M816.33 687.22L790.66 392.62" stroke="hsl(228.5, 77.2%, 51.5%)" stroke-width="1.5"></path><path d="M816.33 687.22L510.51 690.71" stroke="hsl(228.5, 77.2%, 51.5%)" stroke-width="1.5"></path><path d="M978.48 236.52L978.48 236.52" stroke="hsl(228.5, 77.2%, 51.5%)" stroke-width="1.5"></path><path d="M978.48 236.52L950.12 370.95" stroke="hsl(228.5, 77.2%, 51.5%)" stroke-width="1.5"></path><path d="M978.48 236.52L1152.33 237.36" stroke="hsl(228.5, 77.2%, 51.5%)" stroke-width="1.5"></path><path d="M978.48 236.52L1119.92 341.82" stroke="hsl(228.5, 77.2%, 51.5%)" stroke-width="1.5"></path><path d="M978.48 236.52L1095.05 507.58" stroke="hsl(228.5, 77.2%, 51.5%)" stroke-width="1.5"></path><path d="M978.48 236.52L1246.41 373.07" stroke="hsl(228.5, 77.2%, 51.5%)" stroke-width="1.5"></path><path d="M950.12 370.95L950.12 370.95" stroke="hsl(228.5, 77.2%, 51.5%)" stroke-width="1.5"></path><path d="M950.12 370.95L1119.92 341.82" stroke="hsl(228.5, 77.2%, 51.5%)" stroke-width="1.5"></path><path d="M1003.88 655.64L1003.88 655.64" stroke="hsl(228.5, 77.2%, 51.5%)" stroke-width="1.5"></path><path d="M1003.88 655.64L1095.05 507.58" stroke="hsl(228.5, 77.2%, 51.5%)" stroke-width="1.5"></path><path d="M1003.88 655.64L807.82 504.65" stroke="hsl(228.5, 77.2%, 51.5%)" stroke-width="1.5"></path><path d="M1152.33 237.36L1152.33 237.36" stroke="hsl(228.5, 77.2%, 51.5%)" stroke-width="1.5"></path><path d="M1152.33 237.36L1119.92 341.82" stroke="hsl(228.5, 77.2%, 51.5%)" stroke-width="1.5"></path><path d="M1152.33 237.36L1307.98 222.43" stroke="hsl(228.5, 77.2%, 51.5%)" stroke-width="1.5"></path><path d="M1152.33 237.36L1246.41 373.07" stroke="hsl(228.5, 77.2%, 51.5%)" stroke-width="1.5"></path><path d="M1152.33 237.36L950.12 370.95" stroke="hsl(228.5, 77.2%, 51.5%)" stroke-width="1.5"></path><path d="M1119.92 341.82L1119.92 341.82" stroke="hsl(228.5, 77.2%, 51.5%)" stroke-width="1.5"></path><path d="M1119.92 341.82L1246.41 373.07" stroke="hsl(228.5, 77.2%, 51.5%)" stroke-width="1.5"></path><path d="M1119.92 341.82L1095.05 507.58" stroke="hsl(228.5, 77.2%, 51.5%)" stroke-width="1.5"></path><path d="M1095.05 507.58L1095.05 507.58" stroke="hsl(228.5, 77.2%, 51.5%)" stroke-width="1.5"></path><path d="M1095.05 507.58L950.12 370.95" stroke="hsl(228.5, 77.2%, 51.5%)" stroke-width="1.5"></path><path d="M1307.98 222.43L1307.98 222.43" stroke="hsl(228.5, 77.2%, 51.5%)" stroke-width="1.5"></path><path d="M1307.98 222.43L1415.73 211.05" stroke="hsl(228.5, 77.2%, 51.5%)" stroke-width="1.5"></path><path d="M1307.98 222.43L1246.41 373.07" stroke="hsl(228.5, 77.2%, 51.5%)" stroke-width="1.5"></path><path d="M1307.98 222.43L1430.52 111.31" stroke="hsl(228.5, 77.2%, 51.5%)" stroke-width="1.5"></path><path d="M1246.41 373.07L1246.41 373.07" stroke="hsl(228.5, 77.2%, 51.5%)" stroke-width="1.5"></path><path d="M1445.93 -57.91L1445.93 -57.91" stroke="hsl(228.5, 77.2%, 51.5%)" stroke-width="1.5"></path><path d="M1445.93 -57.91L1562.52 -103.5" stroke="hsl(228.5, 77.2%, 51.5%)" stroke-width="1.5"></path><path d="M1445.93 -57.91L1541.66 57.62" stroke="hsl(228.5, 77.2%, 51.5%)" stroke-width="1.5"></path><path d="M1445.93 -57.91L1430.52 111.31" stroke="hsl(228.5, 77.2%, 51.5%)" stroke-width="1.5"></path><path d="M1445.93 -57.91L1415.73 211.05" stroke="hsl(228.5, 77.2%, 51.5%)" stroke-width="1.5"></path><path d="M1430.52 111.31L1430.52 111.31" stroke="hsl(228.5, 77.2%, 51.5%)" stroke-width="1.5"></path><path d="M1430.52 111.31L1415.73 211.05" stroke="hsl(228.5, 77.2%, 51.5%)" stroke-width="1.5"></path><path d="M1430.52 111.31L1586.15 196.41" stroke="hsl(228.5, 77.2%, 51.5%)" stroke-width="1.5"></path><path d="M1430.52 111.31L1562.52 -103.5" stroke="hsl(228.5, 77.2%, 51.5%)" stroke-width="1.5"></path><path d="M1415.73 211.05L1415.73 211.05" stroke="hsl(228.5, 77.2%, 51.5%)" stroke-width="1.5"></path><path d="M1415.73 211.05L1586.15 196.41" stroke="hsl(228.5, 77.2%, 51.5%)" stroke-width="1.5"></path><path d="M1415.73 211.05L1459.62 400.24" stroke="hsl(228.5, 77.2%, 51.5%)" stroke-width="1.5"></path><path d="M1415.73 211.05L1541.66 57.62" stroke="hsl(228.5, 77.2%, 51.5%)" stroke-width="1.5"></path><path d="M1459.62 400.24L1459.62 400.24" stroke="hsl(228.5, 77.2%, 51.5%)" stroke-width="1.5"></path><path d="M1459.62 400.24L1577.71 399.5" stroke="hsl(228.5, 77.2%, 51.5%)" stroke-width="1.5"></path><path d="M1459.62 400.24L1452.69 559.8" stroke="hsl(228.5, 77.2%, 51.5%)" stroke-width="1.5"></path><path d="M1452.69 559.8L1452.69 559.8" stroke="hsl(228.5, 77.2%, 51.5%)" stroke-width="1.5"></path><path d="M1452.69 559.8L1426.78 666.46" stroke="hsl(228.5, 77.2%, 51.5%)" stroke-width="1.5"></path><path d="M1452.69 559.8L1596.57 528.09" stroke="hsl(228.5, 77.2%, 51.5%)" stroke-width="1.5"></path><path d="M1452.69 559.8L1580.4 655.64" stroke="hsl(228.5, 77.2%, 51.5%)" stroke-width="1.5"></path><path d="M1426.78 666.46L1426.78 666.46" stroke="hsl(228.5, 77.2%, 51.5%)" stroke-width="1.5"></path><path d="M1562.52 -103.5L1562.52 -103.5" stroke="hsl(228.5, 77.2%, 51.5%)" stroke-width="1.5"></path><path d="M1562.52 -103.5L1541.66 57.62" stroke="hsl(228.5, 77.2%, 51.5%)" stroke-width="1.5"></path><path d="M1562.52 -103.5L1586.15 196.41" stroke="hsl(228.5, 77.2%, 51.5%)" stroke-width="1.5"></path><path d="M1586.15 196.41L1586.15 196.41" stroke="hsl(228.5, 77.2%, 51.5%)" stroke-width="1.5"></path><path d="M1586.15 196.41L1577.71 399.5" stroke="hsl(228.5, 77.2%, 51.5%)" stroke-width="1.5"></path><path d="M1586.15 196.41L1459.62 400.24" stroke="hsl(228.5, 77.2%, 51.5%)" stroke-width="1.5"></path><path d="M1586.15 196.41L1307.98 222.43" stroke="hsl(228.5, 77.2%, 51.5%)" stroke-width="1.5"></path><path d="M1577.71 399.5L1577.71 399.5" stroke="hsl(228.5, 77.2%, 51.5%)" stroke-width="1.5"></path><path d="M1577.71 399.5L1596.57 528.09" stroke="hsl(228.5, 77.2%, 51.5%)" stroke-width="1.5"></path><path d="M1577.71 399.5L1452.69 559.8" stroke="hsl(228.5, 77.2%, 51.5%)" stroke-width="1.5"></path><path d="M1596.57 528.09L1596.57 528.09" stroke="hsl(228.5, 77.2%, 51.5%)" stroke-width="1.5"></path><path d="M1596.57 528.09L1580.4 655.64" stroke="hsl(228.5, 77.2%, 51.5%)" stroke-width="1.5"></path><path d="M1580.4 655.64L1580.4 655.64" stroke="hsl(228.5, 77.2%, 51.5%)" stroke-width="1.5"></path><path d="M1580.4 655.64L1426.78 666.46" stroke="hsl(228.5, 77.2%, 51.5%)" stroke-width="1.5"></path><circle r="25" cx="-89.1" cy="492.22" fill="url(#SvgjsRadialGradient1601)"></circle><circle r="25" cx="231.25" cy="671.39" fill="url(#SvgjsRadialGradient1601)"></circle><circle r="25" cx="343.2" cy="668.33" fill="url(#SvgjsRadialGradient1601)"></circle><circle r="25" cx="533.89" cy="383.06" fill="url(#SvgjsRadialGradient1601)"></circle><circle r="25" cx="641.16" cy="663.74" fill="url(#SvgjsRadialGradient1601)"></circle><circle r="25" cx="790.66" cy="392.62" fill="url(#SvgjsRadialGradient1601)"></circle><circle r="25" cx="1310.31" cy="526.77" fill="url(#SvgjsRadialGradient1601)"></circle><circle r="25" cx="1299.38" cy="706.73" fill="url(#SvgjsRadialGradient1601)"></circle><circle r="25" cx="1541.66" cy="57.62" fill="url(#SvgjsRadialGradient1601)"></circle><circle r="5" cx="-100.55" cy="675.48" fill="#8b9ad9"></circle><circle r="5" cx="45.05" cy="696.89" fill="#8b9ad9"></circle><circle r="5" cx="243.56" cy="529.16" fill="#8b9ad9"></circle><circle r="5" cx="369.17" cy="388.73" fill="#8b9ad9"></circle><circle r="5" cx="373.42" cy="493.41" fill="#8b9ad9"></circle><circle r="5" cx="510.51" cy="690.71" fill="#8b9ad9"></circle><circle r="5" cx="650.5" cy="391.84" fill="#8b9ad9"></circle><circle r="5" cx="676.25" cy="554.52" fill="#8b9ad9"></circle><circle r="5" cx="807.82" cy="504.65" fill="#8b9ad9"></circle><circle r="5" cx="816.33" cy="687.22" fill="#8b9ad9"></circle><circle r="5" cx="978.48" cy="236.52" fill="#8b9ad9"></circle><circle r="5" cx="950.12" cy="370.95" fill="#8b9ad9"></circle><circle r="5" cx="1003.88" cy="655.64" fill="#8b9ad9"></circle><circle r="5" cx="1152.33" cy="237.36" fill="#8b9ad9"></circle><circle r="5" cx="1119.92" cy="341.82" fill="#8b9ad9"></circle><circle r="5" cx="1095.05" cy="507.58" fill="#8b9ad9"></circle><circle r="5" cx="1307.98" cy="222.43" fill="#8b9ad9"></circle><circle r="5" cx="1246.41" cy="373.07" fill="#8b9ad9"></circle><circle r="5" cx="1445.93" cy="-57.91" fill="#8b9ad9"></circle><circle r="5" cx="1430.52" cy="111.31" fill="#8b9ad9"></circle><circle r="5" cx="1415.73" cy="211.05" fill="#8b9ad9"></circle><circle r="5" cx="1459.62" cy="400.24" fill="#8b9ad9"></circle><circle r="5" cx="1452.69" cy="559.8" fill="#8b9ad9"></circle><circle r="5" cx="1426.78" cy="666.46" fill="#8b9ad9"></circle><circle r="5" cx="1562.52" cy="-103.5" fill="#8b9ad9"></circle><circle r="5" cx="1586.15" cy="196.41" fill="#8b9ad9"></circle><circle r="5" cx="1577.71" cy="399.5" fill="#8b9ad9"></circle><circle r="5" cx="1596.57" cy="528.09" fill="#8b9ad9"></circle><circle r="5" cx="1580.4" cy="655.64" fill="#8b9ad9"></circle></g><defs><mask id="SvgjsMask1600"><rect width="1434" height="486" fill="#ffffff"></rect></mask><radialGradient id="SvgjsRadialGradient1601"><stop stop-color="#ffffff" offset="0.1"></stop><stop stop-color="#1735b3" offset="0.2"></stop><stop stop-color="rgba(23, 53, 179, 0)" offset="1"></stop></radialGradient></defs></svg>