<svg xmlns="http://www.w3.org/2000/svg" version="1.1" xmlns:xlink="http://www.w3.org/1999/xlink" xmlns:svgjs="http://svgjs.com/svgjs" width="1440" height="560" preserveAspectRatio="none" viewBox="0 0 1440 560"><g mask="url(&quot;#SvgjsMask1002&quot;)" fill="none"><rect width="1440" height="560" x="0" y="0" fill="#0e2a47"></rect><path d="M615.01 629.67C711.07 611 659.31 380.17 904.62 366.32 1149.92 352.47 1330.98 172.95 1483.83 170.32" stroke="rgba(51,121,194,0.58)" stroke-width="2"></path><path d="M784.42 574.54C855.02 574.34 838.29 530.68 1062.41 524.77 1286.53 518.86 1462.96 252.53 1618.39 244.77" stroke="rgba(51,121,194,0.58)" stroke-width="2"></path><path d="M222.68 619.78C349.52 605.44 423.83 327.24 639.79 325.29 855.76 323.34 848.35 395.29 1056.91 395.29 1265.46 395.29 1368.28 325.53 1474.02 325.29" stroke="rgba(51,121,194,0.58)" stroke-width="2"></path><path d="M668.81 657.66C824.04 644.57 904.63 341.3 1197.81 328.33 1490.99 315.36 1587.2 151.54 1726.81 149.13" stroke="rgba(51,121,194,0.58)" stroke-width="2"></path><path d="M613.37 590.97C748.99 567.27 785.21 252.12 1030.28 231.16 1275.35 210.2 1335.37 71.59 1447.19 68.76" stroke="rgba(51,121,194,0.58)" stroke-width="2"></path></g><defs><mask id="SvgjsMask1002"><rect width="1440" height="560" fill="#ffffff"></rect></mask></defs></svg>